<?xml version="1.0" encoding="UTF-8" standalone="no"?>
<svg
   xmlns:dc="http://purl.org/dc/elements/1.1/"
   xmlns:cc="http://creativecommons.org/ns#"
   xmlns:rdf="http://www.w3.org/1999/02/22-rdf-syntax-ns#"
   xmlns:svg="http://www.w3.org/2000/svg"
   xmlns="http://www.w3.org/2000/svg"
   xmlns:xlink="http://www.w3.org/1999/xlink"
   xmlns:sodipodi="http://sodipodi.sourceforge.net/DTD/sodipodi-0.dtd"
   xmlns:inkscape="http://www.inkscape.org/namespaces/inkscape"
   sodipodi:docname="clouds.svg"
   inkscape:version="1.0 (4035a4fb49, 2020-05-01)"
   id="svg8"
   version="1.1"
   viewBox="0 0 197.87047 138.50786"
   height="138.50786mm"
   width="197.87047mm">
  <defs
     id="defs2">
    <linearGradient
       id="linearGradient1045"
       inkscape:collect="always">
      <stop
         id="stop1041"
         offset="0"
         style="stop-color:#ffffff;stop-opacity:1;" />
      <stop
         id="stop1043"
         offset="1"
         style="stop-color:#000000;stop-opacity:0.002" />
    </linearGradient>
    <linearGradient
       gradientUnits="userSpaceOnUse"
       y2="541.07294"
       x2="107.15625"
       y1="179.3497"
       x1="109.80209"
       id="linearGradient1047"
       xlink:href="#linearGradient1045"
       inkscape:collect="always" />
  </defs>
  <sodipodi:namedview
     inkscape:window-maximized="0"
     inkscape:window-y="3"
     inkscape:window-x="-7"
     inkscape:window-height="1016"
     inkscape:window-width="1916"
     fit-margin-bottom="0"
     fit-margin-right="0"
     fit-margin-left="0"
     fit-margin-top="0"
     inkscape:pagecheckerboard="true"
     showgrid="false"
     inkscape:document-rotation="0"
     inkscape:current-layer="svg8"
     inkscape:document-units="mm"
     inkscape:cy="325.71134"
     inkscape:cx="273.30521"
     inkscape:zoom="1.4"
     inkscape:pageshadow="2"
     inkscape:pageopacity="0.0"
     borderopacity="1.0"
     bordercolor="#666666"
     pagecolor="#ffffff"
     id="base" />
  <metadata
     id="metadata5">
    <rdf:RDF>
      <cc:Work
         rdf:about="">
        <dc:format>image/svg+xml</dc:format>
        <dc:type
           rdf:resource="http://purl.org/dc/dcmitype/StillImage" />
        <dc:title></dc:title>
      </cc:Work>
    </rdf:RDF>
  </metadata>
  <g
     transform="translate(-9.1659165,-64.748922)"
     id="layer1"
     inkscape:groupmode="layer"
     inkscape:label="Layer 1">
    <g
       inkscape:label="Layer 3"
       id="layer3"
       inkscape:groupmode="layer">
      <circle
         r="44.601189"
         cy="109.42411"
         cx="64.255951"
         id="path1112"
         style="opacity:1;fill:#fded94;fill-opacity:1;stroke:#ffbc00;stroke-width:0.148;stroke-miterlimit:4;stroke-dasharray:none;stroke-opacity:1" />
    </g>
    <path
       transform="scale(0.26458333)"
       d="m 425.35742,342.60156 a 166.3275,166.3275 0 0 0 -158.77539,116.78125 142.82084,142.82084 0 0 0 -93.68164,49.20508 h -6.23633 a 129.64285,129.64285 0 0 0 -2.02148,-0.0156 A 129.64285,129.64285 0 0 0 35,638.21484 a 129.64285,129.64285 0 0 0 129.64258,129.64258 129.64285,129.64285 0 0 0 1.98047,-0.0156 h 483.85547 a 129.64288,129.64288 0 0 0 2.02148,0.0156 129.64288,129.64288 0 0 0 1.98047,-0.0156 h 6.93164 v -0.29297 A 129.64288,129.64288 0 0 0 782.14258,638.21484 129.64288,129.64288 0 0 0 722.92969,529.37109 142.82085,142.82085 0 0 0 585,423.60742 142.82085,142.82085 0 0 0 568.6875,424.54297 166.3275,166.3275 0 0 0 425.35742,342.60156 Z"
       style="fill:#ffffff;fill-opacity:1;stroke:#000000;stroke-width:0.714331;stroke-miterlimit:4;stroke-dasharray:none;stroke-opacity:0.0763052"
       id="path888" />
  </g>
  <g
     transform="translate(-9.1659165,-64.748922)"
     inkscape:label="Layer 2"
     id="layer2"
     inkscape:groupmode="layer">
    <path
       id="path888-8"
       style="fill:url(#linearGradient1047);fill-opacity:1;stroke:none;stroke-width:0.189;stroke-miterlimit:4;stroke-dasharray:none;stroke-opacity:0.0763052"
       d="m 112.54248,90.646562 a 44.007484,44.007484 0 0 0 -42.009324,30.898378 37.788014,37.788014 0 0 0 -24.7866,13.01884 h -1.650029 a 34.301337,34.301337 0 0 0 -0.53485,-0.004 34.301337,34.301337 0 0 0 -34.3012675,34.30126 34.301337,34.301337 0 0 0 34.3012675,34.30127 34.301337,34.301337 0 0 0 0.524,-0.004 H 172.10577 a 34.301345,34.301345 0 0 0 0.53485,0.004 34.301345,34.301345 0 0 0 0.524,-0.004 h 1.834 v -0.0775 a 34.301345,34.301345 0 0 0 31.94327,-34.2198 34.301345,34.301345 0 0 0 -15.66675,-28.79824 37.788017,37.788017 0 0 0 -36.4939,-27.98331 37.788017,37.788017 0 0 0 -4.31601,0.24753 44.007484,44.007484 0 0 0 -37.92275,-21.680328 z" />
  </g>
</svg>
